<?xml version="1.0" encoding="UTF-8" standalone="no"?>
<svg
   xmlns:dc="http://purl.org/dc/elements/1.1/"
   xmlns:cc="http://creativecommons.org/ns#"
   xmlns:rdf="http://www.w3.org/1999/02/22-rdf-syntax-ns#"
   xmlns:svg="http://www.w3.org/2000/svg"
   xmlns="http://www.w3.org/2000/svg"
   version="1.1"
   id="svg6200"
   viewBox="0 0 58.940001 41.939"
   height="11.836118mm"
   width="16.634178mm">
  <defs
     id="defs6202" />
  <metadata
     id="metadata6205">
    <rdf:RDF>
      <cc:Work
         rdf:about="">
        <dc:format>image/svg+xml</dc:format>
        <dc:type
           rdf:resource="http://purl.org/dc/dcmitype/StillImage" />
        <dc:title></dc:title>
      </cc:Work>
    </rdf:RDF>
  </metadata>
  <g
     transform="translate(-390.53,-508.53556)"
     id="layer1">
    <path
       style="fill:none"
       id="path4158"
       d="m 449.469,517.25956 -3.467,1.789 -4.921,2.013 -3.69,1.23 -3.915,1.118 -4.921,1.007 -4.249,0.783 0,16.887 25.164,0 0,8.388 -58.94,0 0,-31.65 6.151,0 7.829,-0.224 6.934,-0.559 4.25,-0.559 0,-8.947 8.611,0 0,8.052 3.803,-0.671 4.585,-1.006 4.473,-1.342 3.691,-1.23 4.697,-1.901 3.915,-1.901 z m -50.664,10.178 0,14.539 16.776,0 0,-15.657 -4.026,0.447 -4.585,0.335 -3.803,0.224 z" />
  </g>
</svg>
